<?xml version="1.0" encoding="UTF-8"?>
<svg xmlns="http://www.w3.org/2000/svg" width="1000" height="390" viewBox="0 0 1000 390">
<rect width="1000" height="390" rx="24" fill="#0b1020"/>
<text x="50" y="52" fill="#f8fafc" font-family="Arial" font-size="27" font-weight="700">Direct FAQ Matching</text>
<text x="50" y="80" fill="#94a3b8" font-family="Arial" font-size="15">Fast path before vector retrieval and Gemini</text>
<style>.t{fill:#fff;font-family:Arial;font-weight:700;font-size:16px}.s{fill:#dbeafe;font-family:Arial;font-size:13px}.a{stroke:#94a3b8;stroke-width:3;fill:none;marker-end:url(#m)}</style>
<defs><marker id="m" markerWidth="10" markerHeight="10" refX="9" refY="5" orient="auto"><path d="M0 0L10 5L0 10z" fill="#94a3b8"/></marker></defs>
<rect x="50" y="140" width="160" height="90" rx="15" fill="#1d4ed8"/><text x="130" y="178" text-anchor="middle" class="t">Question</text><text x="130" y="201" text-anchor="middle" class="s">normalize text</text>
<path d="M210 185H275" class="a"/>
<rect x="275" y="140" width="190" height="90" rx="15" fill="#334155"/><text x="370" y="178" text-anchor="middle" class="t">Compare FAQ</text><text x="370" y="201" text-anchor="middle" class="s">SequenceMatcher + overlap</text>
<path d="M465 185H535" class="a"/>
<polygon points="605,135 675,185 605,235 535,185" fill="#7c2d12" stroke="#fb923c" stroke-width="2"/><text x="605" y="181" text-anchor="middle" class="t">≥ 0.78?</text>
<path d="M605 235V300H300" class="a"/><text x="485" y="287" fill="#86efac" font-family="Arial" font-size="13">YES</text>
<rect x="140" y="300" width="160" height="60" rx="13" fill="#166534"/><text x="220" y="337" text-anchor="middle" class="t">Stored Answer</text>
<path d="M675 185H750" class="a"/><text x="690" y="168" fill="#fca5a5" font-family="Arial" font-size="13">NO</text>
<rect x="750" y="140" width="180" height="90" rx="15" fill="#075985"/><text x="840" y="178" text-anchor="middle" class="t">Continue to RAG</text><text x="840" y="201" text-anchor="middle" class="s">FAISS → Gemini</text>
</svg>